<svg width="206" height="231" viewBox="0 0 206 231" fill="none" xmlns="http://www.w3.org/2000/svg">
<path d="M143.143 84C143.143 96.1503 133.293 106 121.143 106C108.992 106 99.1426 96.1503 99.1426 84C99.1426 71.8497 108.992 62 121.143 62C133.293 62 143.143 71.8497 143.143 84Z" fill="#FFC131"/>
<ellipse cx="84.1426" cy="147" rx="22" ry="22" transform="rotate(180 84.1426 147)" fill="#24C8DB"/>
<path fill-rule="evenodd" clip-rule="evenodd" d="M166.738 154.548C157.86 168.687 149.588 176.888 137.655 187.482C135.415 189.446 133.298 191.451 131.223 193.518C124.189 201.324 117.962 209.652 111.223 218.693C109.278 221.627 107.065 224.793 104.711 228.146C103.956 229.263 103.189 230.397 102.411 231.532C101.942 232.21 101.471 232.888 101 233.567C100.529 232.888 100.058 232.21 99.5887 231.532C98.8113 230.397 98.0436 229.263 97.2887 228.146C94.9347 224.793 92.722 221.627 90.777 218.693C84.038 209.652 77.8108 201.324 70.777 193.518C68.7024 191.451 66.5848 189.446 64.3452 187.482C52.4117 176.888 44.1399 168.687 35.2617 154.548C26.3834 140.408 24.6299 127.389 30.9928 114.548C37.3558 101.707 49.2692 91.4648 63.7308 86.5088C78.1925 81.5529 93.9616 81.9324 108.232 87.5713C122.503 93.2101 134.223 103.662 141.286 116.548C148.348 129.434 150.695 144.298 147.678 158.582C144.661 172.867 136.434 185.926 124.655 195.857C112.876 205.788 98.0436 212.15 82.777 213.975C67.5103 215.8 52.4117 213.032 39.2617 205.857C25.9616 198.593 15.0848 187.274 8.06165 173.548C1.03847 159.823 -1.92153 144.298 0.0784699 128.548C2.0785 112.798 8.44151 97.7336 18.777 85.5713C29.1125 73.409 42.9616 64.5529 58.2283 60.0178C73.495 55.4827 89.6616 55.4827 104.928 60.0178C120.195 64.5529 134.044 73.409 144.38 85.5713C154.715 97.7336 161.078 112.798 163.078 128.548C165.078 144.298 162.118 159.823 155.095 173.548C148.072 187.274 137.195 198.593 123.895 205.857C110.744 213.032 95.6456 215.8 80.3789 213.975C65.1122 212.15 50.2799 205.788 38.5011 195.857C26.7222 185.926 18.4951 172.867 15.4779 158.582C12.4608 144.298 14.8077 129.434 21.8705 116.548C28.9333 103.662 40.6533 93.2101 54.924 87.5713C69.1948 81.9324 84.9639 81.5529 99.4256 86.5088C113.887 91.4648 125.801 101.707 132.164 114.548C138.527 127.389 136.773 140.408 127.895 154.548L166.738 154.548Z" fill="#FFC131"/>
</svg>